<?xml version="1.0" encoding="UTF-8"?>
<!-- Generator: Adobe Illustrator 17.0.0, SVG Export Plug-In . SVG Version: 6.00 Build 0) -->
<svg xmlns="http://www.w3.org/2000/svg" xmlns:xlink="http://www.w3.org/1999/xlink" version="1.1" id="logo" x="0px" y="0px" width="113px" height="81px" viewBox="0 0 113 81" xml:space="preserve"> <g id="name"> <path fill="#212121" d="M68.332,68.796c0.013-2.333,0.02-4.667-0.002-7c-0.01-1.026-0.088-2.053-0.292-3.062 c-0.529-2.618-1.828-4.614-4.268-5.555c-2.624-1.012-5.159-0.843-7.478,0.963c-0.255,0.198-0.428,0.32-0.739,0.06 c-1.736-1.45-3.757-1.768-5.885-1.542c-1.14,0.121-2.198,0.518-3.126,1.261c-0.964,0.772-1.569,1.733-1.729,3.043 c-0.405,3.323-0.271,6.658-0.22,9.986c0.026,1.662,1.04,2.811,2.399,3.108c0.858,0.188,1.486-0.011,1.526-1.167 c0.058-1.668-0.047-3.332-0.057-4.998c0-0.722-0.003-1.444,0.001-2.167c0.004-0.75,0.006-1.5,0.026-2.25 c0.011-0.415,0.064-0.83,0.091-1.245c0.058-0.863,0.544-1.35,1.274-1.614c1.489-0.538,3.062,0.053,3.919,1.474 c0.48,0.796,0.685,1.68,0.679,2.614c-0.011,1.722-0.049,3.444-0.057,5.167c-0.002,0.498,0.025,1.002,0.099,1.493 c0.24,1.591,1.181,2.584,2.555,2.74c1.05,0.119,1.492-0.267,1.485-1.372c-0.018-2.805,0.083-5.612-0.081-8.415 c-0.042-0.726,0.057-1.442,0.117-2.161c0.054-0.647,0.378-1.08,0.923-1.341c1.134-0.543,2.234-0.525,3.297,0.218 c1.14,0.795,1.579,1.979,1.608,3.347c0.034,1.693,0.002,3.388,0.003,5.083c0,0.555-0.015,1.113,0.028,1.665 c0.123,1.544,1.089,2.679,2.468,2.938C67.908,70.257,68.325,69.904,68.332,68.796z"/> <path fill="#212121" d="M9.187,52.86c-1.038-0.282-2.088-0.297-3.101,0.135c-0.795,0.34-1.392,0.892-1.536,1.849 c-0.112,0.747,0.159,1.128,0.872,1.134c0.608,0.006,1.21,0.041,1.802,0.171c1.597,0.35,2.853,1.161,3.303,2.935 c0.529,2.087,0.137,4.019-1.003,5.788c-0.33,0.511-0.791,0.891-1.314,1.172c-1.829,0.981-3.917-0.042-4.383-2.145 c-0.096-0.434-0.148-0.871-0.146-1.32c0.012-3.891,0.015-7.782,0.019-11.673c0-0.278,0.006-0.557-0.022-0.833 c-0.129-1.3-1.123-2.471-2.327-2.734C0.592,47.174-0.019,47.358,0,48.48c0.046,2.64,0.015,5.281,0.015,7.921 c0,2.529-0.012,5.059,0.003,7.588c0.018,2.974,1.871,5.361,4.606,5.927c0.906,0.188,1.832,0.211,2.748,0.054 c2.589-0.443,4.686-1.689,5.806-4.303c1.25-2.917,1.332-5.934,0.247-8.919C12.68,54.701,11.205,53.408,9.187,52.86z"/> <path fill="#212121" d="M77.252,69.816c2.545-0.444,4.431-1.843,5.466-4.365c1.047-2.556,1.08-5.194,0.218-7.806 c-0.928-2.814-2.845-4.487-5.628-4.951c-1.245-0.207-2.516-0.165-3.764,0.11c-0.492,0.108-0.952,0.304-1.369,0.612 c-0.578,0.428-0.872,1.023-0.935,1.753c-0.064,0.733,0.175,1.039,0.856,1.102c0.183,0.017,0.368,0.007,0.552,0.008 c0.893,0.002,1.786,0.002,2.68,0.006c0.796,0.003,1.572,0.146,2.316,0.435c1.525,0.593,2.403,1.736,2.536,3.469 c0.034,0.442,0.056,0.894,0.009,1.331c-0.216,1.994-1.135,3.499-2.879,4.361c-0.857,0.424-1.767,0.534-2.685,0.202 c-0.928-0.335-1.313-0.996-1.225-2.057c0.069-0.842,0.587-1.392,1.499-1.549c0.362-0.062,0.732-0.071,1.099-0.096 c0.393-0.027,0.79-0.018,1.18-0.074c1.096-0.155,1.999-1.079,2.127-2.145c0.096-0.801-0.175-1.15-0.938-1.171 c-0.551-0.016-1.104-0.003-1.655-0.003c-0.892,0.018-1.786-0.031-2.672,0.143c-1.605,0.316-2.935,1.075-3.709,2.653 c-1.139,2.323-0.945,6.37,2.878,7.737C74.53,69.993,75.881,70.055,77.252,69.816z"/> <path fill="#212121" d="M97.544,58.823c-0.614-3.016-2.189-5.117-5.084-5.955c-1.185-0.343-2.394-0.341-3.597-0.176 c-1.113,0.152-2.124,0.611-3.016,1.338c-0.867,0.708-1.41,1.613-1.579,2.779c-0.124,0.854-0.208,1.706-0.214,2.568 c-0.017,2.36-0.052,4.72-0.046,7.081c0.005,1.993,0.949,3.296,2.533,3.585c0.971,0.177,1.43-0.239,1.43-1.299 c0-1.666,0-3.332,0-4.998h0.003c0-1.555-0.002-3.11,0.002-4.665c0-0.277,0.015-0.555,0.032-0.831 c0.045-0.75,0.436-1.185,1.083-1.478c2.288-1.037,4.324,0.723,4.669,2.73c0.094,0.547,0.15,1.096,0.14,1.656 c-0.028,1.638-0.038,3.276-0.064,4.915c-0.007,0.446-0.008,0.893,0.086,1.326c0.268,1.242,0.852,2.255,2.095,2.553 c1.583,0.38,1.818-0.176,1.805-1.483c-0.022-2.305-0.018-4.61-0.04-6.914C97.772,60.64,97.727,59.724,97.544,58.823z"/> <path fill="#212121" d="M43.902,69.14c0.024-0.248,0.014-0.499,0.013-0.749c-0.004-2.221-0.014-4.443-0.013-6.665 c0-0.807-0.047-1.607-0.153-2.407c-0.435-3.304-2.283-5.631-5.166-6.446c-1.342-0.379-2.701-0.366-4.059-0.085 c-0.945,0.195-1.792,0.623-2.553,1.24c-0.822,0.666-1.382,1.517-1.554,2.614c-0.12,0.766-0.241,1.53-0.24,2.313 c0.003,2.36-0.018,4.72-0.025,7.081c-0.001,0.361-0.008,0.724,0.028,1.082c0.155,1.523,1.03,2.602,2.325,2.895 c1.111,0.251,1.599-0.158,1.6-1.344c0.001-1.638,0-3.277,0-4.915h0.005c0-1.75,0.007-3.499-0.003-5.248 c-0.005-0.892,0.392-1.427,1.172-1.762c2.161-0.926,3.999,0.611,4.508,2.347c0.197,0.673,0.211,1.366,0.206,2.062 c-0.012,1.777-0.017,3.554-0.034,5.331c-0.009,0.89,0.21,1.701,0.706,2.422c0.573,0.833,1.375,1.179,2.325,1.15 C43.591,70.038,43.842,69.768,43.902,69.14z"/> <path fill="#212121" d="M112.845,60.155c-0.107-0.918-0.344-1.793-0.87-2.557c-0.432-0.628-1.011-0.945-1.742-0.976 c-0.777-0.034-1.219,0.159-1.177,1.2c0.042,1.029,0.2,2.043,0.26,3.069c0.09,1.534-0.135,2.992-0.958,4.296 c-1.262,1.998-3.423,1.83-4.664,0.458c-1.091-1.207-1.54-2.679-1.618-4.312c-0.074-1.542,0.525-2.742,1.648-3.681 c0.373-0.312,0.779-0.569,1.218-0.76c1.256-0.548,2.552-0.844,3.92-0.651c0.182,0.026,0.368,0.041,0.55,0.028 c0.463-0.032,0.671-0.221,0.743-0.698c0.105-0.698-0.04-1.322-0.531-1.835c-0.462-0.483-1.029-0.76-1.645-0.938 c-3.218-0.931-6.974,0.865-8.479,4.159c-1.345,2.945-1.354,5.964-0.036,8.929c0.88,1.981,2.325,3.361,4.362,3.911 c4.552,1.229,9.262-2.767,9.173-7.733C112.949,61.427,112.918,60.788,112.845,60.155z"/> <path fill="#212121" d="M29.38,62.086c-0.052-0.664-0.08-1.331-0.162-1.991c-0.114-0.916-0.357-1.789-0.898-2.545 c-0.426-0.595-0.987-0.893-1.685-0.926c-0.927-0.044-1.186,0.213-1.19,1.174c-0.004,1.031,0.187,2.044,0.249,3.07 c0.093,1.534-0.127,2.993-0.944,4.299c-1.269,2.029-3.456,1.858-4.717,0.435c-0.958-1.08-1.401-2.386-1.552-3.831 c-0.22-2.102,0.643-3.592,2.329-4.61c0.76-0.459,1.588-0.72,2.451-0.868c0.757-0.13,1.51-0.123,2.275-0.036 c0.745,0.085,0.992-0.206,1.027-0.995c0.029-0.658-0.201-1.19-0.657-1.624c-0.46-0.439-1.007-0.701-1.602-0.852 c-2.387-0.603-6.229,0.047-8.138,3.646c-1.81,3.413-1.757,6.91,0.136,10.3c0.861,1.542,2.166,2.568,3.806,3.042 C24.65,71.087,29.466,67.075,29.38,62.086z"/> </g> <g id="logo_1_"> <ellipse fill="#FFFFFF" cx="56.975" cy="23.519" rx="21.553" ry="22.785"/> <path fill="#05A894" d="M78.567,23.527c0.053,12.585-9.737,22.874-21.645,22.818C45.008,46.289,35.36,36.07,35.383,23.456 c0.023-12.548,9.732-22.799,21.606-22.763C69.288,0.73,78.638,11.328,78.567,23.527 M45.181,23.488 c-0.04,0.071-0.06,0.134-0.1,0.175c-0.912,0.941-1.601,2.057-2.24,3.209c-1.071,1.929-1.866,3.991-2.605,6.08 c-0.332,0.938-0.262,1.062,0.66,1.219c1.4,0.239,2.803,0.446,4.219,0.557c1.875,0.146,3.739,0.169,5.582-0.306 c0.403-0.104,0.415-0.095,0.526,0.317c0.266,0.987,0.671,1.911,1.12,2.816c1.143,2.302,2.663,4.324,4.211,6.326 c0.05,0.064,0.106,0.124,0.165,0.178c0.174,0.157,0.361,0.164,0.537,0.013c0.106-0.091,0.2-0.2,0.288-0.311 c0.742-0.947,1.472-1.904,2.14-2.911c1.281-1.93,2.521-3.887,3.106-6.205c0.07-0.275,0.194-0.305,0.428-0.237 c0.762,0.221,1.542,0.35,2.33,0.389c2.632,0.129,5.233-0.172,7.816-0.682c0.631-0.124,0.71-0.289,0.472-0.953 c-0.293-0.817-0.595-1.631-0.913-2.438c-0.995-2.53-2.133-4.972-3.945-6.987c-0.168-0.187-0.124-0.303,0.026-0.462 c0.659-0.695,1.21-1.482,1.702-2.314c1.335-2.254,2.298-4.692,3.165-7.176c0.185-0.53,0.074-0.732-0.451-0.839 c-0.89-0.181-1.785-0.325-2.686-0.434c-2.512-0.302-5.022-0.55-7.516,0.143c-0.282,0.079-0.381-0.049-0.444-0.323 c-0.115-0.506-0.28-0.998-0.482-1.474c-1.214-2.863-2.99-5.329-4.878-7.715c-0.288-0.364-0.543-0.358-0.838-0.007 c-0.302,0.357-0.586,0.731-0.862,1.111c-1.829,2.512-3.665,5.021-4.502,8.145c-0.069,0.258-0.195,0.333-0.433,0.256 c-1.222-0.391-2.485-0.43-3.746-0.432c-2.175-0.004-4.32,0.319-6.454,0.732c-0.557,0.107-0.651,0.284-0.434,0.88 C41.405,17.291,42.661,20.758,45.181,23.488 M59.139,2.822c-0.223-0.005-0.38,0.133-0.429,0.388 c-0.051,0.266,0.078,0.443,0.307,0.531c0.109,0.041,0.231,0.045,0.347,0.063c0.37,0.058,0.743,0.096,1.109,0.173 c4.644,0.985,8.444,3.432,11.384,7.363c0.097,0.129,0.2,0.258,0.32,0.364c0.157,0.138,0.331,0.114,0.487-0.015 c0.153-0.127,0.216-0.289,0.143-0.495c-0.071-0.199-0.2-0.357-0.322-0.52c-2.807-3.726-6.399-6.171-10.759-7.357 C60.887,3.089,60.032,2.941,59.139,2.822 M54.623,44.193c0.113,0.006,0.152,0.012,0.192,0.01c0.307-0.009,0.485-0.15,0.491-0.411 c0.005-0.26-0.111-0.442-0.364-0.488c-0.562-0.101-1.131-0.167-1.688-0.294c-4.499-1.023-8.195-3.42-11.055-7.242 c-0.109-0.146-0.223-0.295-0.359-0.411c-0.177-0.151-0.368-0.111-0.537,0.04c-0.159,0.142-0.185,0.323-0.091,0.505 c0.084,0.163,0.192,0.314,0.301,0.461c2.361,3.174,5.354,5.422,8.941,6.787C51.828,43.674,53.247,44.007,54.623,44.193 M54.626,2.854c-0.078,0.014-0.155,0.031-0.233,0.043c-5.367,0.817-9.716,3.489-13.048,8.011c-0.084,0.115-0.16,0.237-0.228,0.364 c-0.118,0.222-0.042,0.402,0.131,0.547c0.179,0.15,0.371,0.157,0.533-0.016c0.151-0.162,0.28-0.349,0.414-0.528 c2.879-3.845,6.6-6.249,11.135-7.25c0.462-0.102,0.934-0.153,1.398-0.25c0.298-0.062,0.426-0.252,0.401-0.522 C55.103,2.98,54.934,2.846,54.626,2.854 M37.359,23.49c-0.04,1.781,0.186,3.57,0.614,5.332c0.25,1.029,0.587,2.028,0.987,3.002 c0.132,0.322,0.305,0.388,0.558,0.276c0.265-0.117,0.348-0.32,0.251-0.603c-0.06-0.176-0.123-0.351-0.189-0.524 c-0.869-2.283-1.32-4.659-1.364-7.115c-0.049-2.696,0.42-5.296,1.367-7.8c0.051-0.135,0.107-0.27,0.139-0.41 c0.059-0.254-0.019-0.463-0.255-0.56c-0.237-0.098-0.426,0.009-0.546,0.233c-0.068,0.126-0.113,0.265-0.163,0.4 C37.834,18.204,37.288,20.765,37.359,23.49 M59.48,44.188c0.141-0.026,0.373-0.072,0.606-0.113c5.15-0.91,9.324-3.552,12.54-7.896 c0.073-0.098,0.15-0.195,0.208-0.304c0.148-0.282,0.111-0.504-0.101-0.657c-0.218-0.158-0.412-0.1-0.576,0.095 c-0.118,0.14-0.223,0.292-0.333,0.439C69,39.521,65.371,41.93,60.927,42.959c-0.538,0.124-1.087,0.198-1.626,0.316 c-0.357,0.078-0.493,0.263-0.441,0.537C58.918,44.115,59.121,44.204,59.48,44.188 M76.674,24.8 c-0.002-4.132-0.496-6.729-1.552-9.377c-0.046-0.115-0.09-0.233-0.156-0.334c-0.132-0.203-0.325-0.228-0.523-0.135 c-0.178,0.084-0.273,0.249-0.237,0.455c0.027,0.162,0.088,0.319,0.149,0.472c0.825,2.071,1.293,4.223,1.406,6.472 c0.149,2.954-0.24,5.807-1.312,8.548c-0.067,0.172-0.132,0.348-0.173,0.529c-0.05,0.224,0.005,0.415,0.229,0.509 c0.235,0.098,0.43,0.037,0.558-0.193c0.079-0.143,0.138-0.299,0.197-0.453C76.206,28.813,76.669,26.234,76.674,24.8 M40.132,23.492 c-0.002,1.462,0.149,2.905,0.492,4.324c0.034,0.141,0.065,0.283,0.112,0.419c0.053,0.156,0.166,0.229,0.325,0.192 s0.235-0.15,0.215-0.317c-0.012-0.102-0.054-0.199-0.079-0.3c-0.316-1.317-0.483-2.654-0.49-4.012 c-0.009-1.566,0.115-3.116,0.523-4.631c0.06-0.224,0.136-0.495-0.139-0.587c-0.288-0.095-0.349,0.181-0.406,0.407 c-0.02,0.08-0.041,0.16-0.061,0.241C40.285,20.628,40.138,22.05,40.132,23.492 M73.906,23.455 c-0.034-1.438-0.199-2.921-0.554-4.378c-0.058-0.238-0.081-0.568-0.4-0.489c-0.322,0.08-0.208,0.392-0.151,0.628 c0.694,2.859,0.696,5.716,0.003,8.576c-0.113,0.466-0.063,0.664,0.158,0.68c0.34,0.024,0.336-0.274,0.394-0.51 C73.714,26.506,73.855,25.019,73.906,23.455 M61.342,6.277c-0.202,0.009-0.359,0.002-0.401,0.182 c-0.046,0.199,0.071,0.308,0.237,0.369c0.075,0.027,0.148,0.056,0.224,0.079c2.663,0.805,4.99,2.227,6.987,4.254 c0.32,0.325,0.524,0.392,0.64,0.207c0.186-0.298-0.063-0.455-0.225-0.621c-2.021-2.057-4.37-3.524-7.064-4.365 C61.589,6.335,61.435,6.301,61.342,6.277 M53.083,40.536c-0.008-0.148-0.089-0.241-0.2-0.292c-0.143-0.065-0.295-0.112-0.446-0.16 c-2.59-0.82-4.872-2.196-6.803-4.206c-0.084-0.087-0.168-0.176-0.263-0.25c-0.127-0.099-0.258-0.091-0.372,0.031 c-0.115,0.122-0.12,0.257-0.019,0.39c0.049,0.064,0.111,0.117,0.167,0.175c2.072,2.164,4.514,3.653,7.314,4.494 c0.112,0.034,0.228,0.075,0.343,0.076C52.96,40.796,53.054,40.692,53.083,40.536 M53.092,6.503 c-0.025-0.141-0.111-0.218-0.241-0.234c-0.18-0.022-0.35,0.031-0.52,0.085c-2.67,0.841-5.024,2.257-7.036,4.301 c-0.113,0.115-0.227,0.232-0.322,0.363c-0.076,0.106-0.078,0.235,0.012,0.343c0.091,0.11,0.223,0.123,0.321,0.05 c0.192-0.143,0.372-0.307,0.544-0.477c1.935-1.909,4.169-3.256,6.719-4.013c0.131-0.039,0.26-0.093,0.381-0.161 C53.039,6.711,53.088,6.615,53.092,6.503 M69.079,35.828c-0.032-0.189-0.148-0.268-0.336-0.217 c-0.138,0.038-0.237,0.144-0.336,0.246c-2,2.065-4.359,3.474-7.037,4.3c-0.219,0.068-0.538,0.095-0.422,0.45 c0.11,0.336,0.386,0.175,0.608,0.109c1.545-0.459,3.002-1.133,4.364-2.031c1.04-0.686,2.001-1.479,2.876-2.388 C68.92,36.17,69.082,36.063,69.079,35.828 M71.906,23.547c-0.043-0.634-0.08-1.255-0.13-1.875 c-0.014-0.173-0.093-0.344-0.285-0.332c-0.224,0.014-0.28,0.198-0.255,0.407c0.147,1.221,0.143,2.441-0.006,3.661 c-0.007,0.06-0.001,0.125,0.015,0.183c0.031,0.109,0.111,0.168,0.215,0.184c0.109,0.016,0.198-0.035,0.236-0.14 c0.042-0.115,0.075-0.237,0.085-0.359C71.828,24.696,71.866,24.116,71.906,23.547 M62.693,38.05 c0.038-0.014,0.116-0.032,0.186-0.067c0.302-0.15,0.607-0.297,0.902-0.46c0.733-0.405,1.443-0.85,2.101-1.38 c0.122-0.098,0.279-0.205,0.158-0.405c-0.13-0.214-0.298-0.146-0.46-0.039c-0.067,0.044-0.132,0.091-0.196,0.139 c-0.821,0.614-1.691,1.137-2.606,1.578c-0.106,0.051-0.215,0.107-0.305,0.184c-0.096,0.081-0.143,0.196-0.069,0.329 C62.46,38.028,62.549,38.059,62.693,38.05 M42.662,23.713c0.004-0.75,0.015-1.309,0.077-1.866c0.014-0.121,0.014-0.248-0.002-0.368 c-0.014-0.106-0.075-0.192-0.188-0.209c-0.111-0.017-0.193,0.042-0.237,0.14c-0.04,0.092-0.071,0.194-0.079,0.294 c-0.088,1.011-0.159,2.023-0.046,3.038c0.027,0.247,0.041,0.495,0.081,0.739c0.021,0.127,0.109,0.218,0.251,0.209 c0.146-0.009,0.204-0.112,0.216-0.244c0.008-0.102-0.01-0.206-0.014-0.309C42.698,24.599,42.676,24.06,42.662,23.713 M51.572,37.788c0.011-0.25-0.181-0.293-0.337-0.37c-0.965-0.474-1.895-1.013-2.751-1.687c-0.063-0.05-0.128-0.097-0.197-0.137 c-0.133-0.078-0.273-0.097-0.362,0.056c-0.083,0.142-0.037,0.282,0.082,0.388c0.075,0.067,0.155,0.128,0.234,0.189 c0.83,0.638,1.707,1.189,2.648,1.625c0.126,0.058,0.251,0.126,0.384,0.156C51.43,38.045,51.532,37.953,51.572,37.788 M66.112,11.286c0.012-0.144-0.008-0.209-0.208-0.364c-0.922-0.719-1.895-1.347-2.957-1.812c-0.164-0.072-0.359-0.156-0.464,0.063 c-0.106,0.222,0.06,0.339,0.231,0.424c0.071,0.036,0.143,0.069,0.215,0.104c0.894,0.443,1.749,0.956,2.545,1.575 c0.095,0.074,0.189,0.155,0.295,0.206C65.967,11.577,66.057,11.447,66.112,11.286 M51.588,9.269 c-0.003-0.169-0.062-0.287-0.245-0.26c-0.077,0.011-0.154,0.04-0.226,0.072c-1.037,0.468-2.012,1.051-2.919,1.76 c-0.078,0.061-0.149,0.137-0.207,0.218c-0.064,0.091-0.059,0.192,0.01,0.286c0.07,0.094,0.162,0.118,0.262,0.083 c0.073-0.026,0.144-0.067,0.207-0.115c0.898-0.683,1.848-1.272,2.865-1.735C51.468,9.516,51.584,9.445,51.588,9.269"/> <path fill="#05A894" d="M62.073,32.865c-2.613-0.935-4.81-4.95-4.559-8.332C59.909,25.045,62.945,30.591,62.073,32.865"/> <path fill="#05A894" d="M56.518,22.548c-2.783-1.151-4.98-5.099-4.659-8.279c0.142-0.129,0.261-0.002,0.373,0.054 c0.812,0.408,1.505,0.987,2.09,1.701c1.449,1.77,2.141,3.848,2.216,6.171C56.542,22.297,56.527,22.399,56.518,22.548"/> <path fill="#05A894" d="M56.494,24.471c0.11,0.609,0.012,1.161-0.074,1.707c-0.39,2.483-1.434,4.564-3.401,6.058 c-0.254,0.193-0.531,0.359-0.812,0.507c-0.3,0.159-0.364,0.111-0.391-0.26c-0.051-0.712,0.017-1.412,0.206-2.1 c0.57-2.08,1.623-3.823,3.233-5.174C55.621,24.901,56.015,24.635,56.494,24.471"/> <path fill="#05A894" d="M62.078,14.187c0.552,3.032-1.793,7.071-4.504,8.324C56.914,19.816,59.431,15.137,62.078,14.187"/> <path fill="#05A894" d="M55.927,23.497c-2.039,1.717-6.501,2.2-9.075,0.08c-0.016-0.187,0.14-0.23,0.246-0.305 c0.935-0.664,1.98-0.996,3.088-1.164C52.036,21.826,54.35,22.366,55.927,23.497"/> <path fill="#05A894" d="M58.106,23.53c2.027-1.731,6.469-2.181,9.066-0.044C65.174,25.475,60.488,25.468,58.106,23.53"/> <path fill="#07A894" d="M52.488,25.842c-0.825,0.601-1.64,1.221-2.565,1.63c-0.525,0.232-1.089,0.166-1.632,0.043 c-1.259-0.284-2.336-0.973-3.375-1.739c-0.185-0.137-0.212-0.267-0.054-0.455c0.247-0.296,0.429-0.651,0.718-0.91 c0.309-0.277,0.476-0.3,0.792-0.064c1.829,1.37,3.864,1.788,6.059,1.486C52.449,25.831,52.469,25.839,52.488,25.842"/> <path fill="#08A895" d="M61.49,21.07c0.821-0.484,1.639-0.975,2.464-1.449c0.454-0.261,0.956-0.256,1.442-0.163 c1.364,0.261,2.548,0.949,3.661,1.794c0.174,0.132,0.24,0.264,0.082,0.455c-0.259,0.313-0.506,0.638-0.778,0.937 c-0.198,0.218-0.45,0.263-0.695,0.076c-1.779-1.363-3.782-1.757-5.927-1.539c-0.076,0.008-0.154,0.001-0.231,0.001 C61.502,21.144,61.497,21.107,61.49,21.07"/> <path fill="#08A895" d="M56.653,18.088c-0.113-0.212-0.23-0.422-0.338-0.636c-0.905-1.791-2.175-3.194-3.905-4.11 c-0.465-0.246-0.474-0.297-0.312-0.829c0.096-0.316,0.204-0.629,0.289-0.948c0.067-0.254,0.188-0.353,0.428-0.234 c1.216,0.607,2.377,1.298,3.255,2.414c0.43,0.546,0.674,1.172,0.688,1.882c0.016,0.808,0.004,1.616,0.004,2.424 C56.725,18.063,56.689,18.075,56.653,18.088"/> <path fill="#08A895" d="M56.75,29.028c0.003,1.007,0.082,2.013-0.07,3.017c-0.078,0.511-0.317,0.94-0.635,1.315 c-0.898,1.058-2.024,1.768-3.234,2.35c-0.253,0.122-0.357,0.012-0.426-0.233c-0.101-0.358-0.223-0.71-0.325-1.068 c-0.123-0.43-0.121-0.454,0.285-0.673c0.919-0.496,1.747-1.12,2.466-1.905c0.677-0.739,1.218-1.576,1.657-2.49 c0.052-0.109,0.12-0.21,0.184-0.313C56.658,29.021,56.686,29.028,56.75,29.028"/> <path fill="#07A894" d="M52.792,20.651c-0.946-0.567-1.788-1.06-2.572-1.655c-0.399-0.304-0.628-0.738-0.785-1.22 c-0.44-1.351-0.422-2.742-0.325-4.141c0.018-0.257,0.139-0.375,0.388-0.333c0.253,0.042,0.507,0.076,0.76,0.119 c0.623,0.107,0.775,0.288,0.725,0.96c-0.098,1.315,0.134,2.569,0.578,3.789c0.249,0.684,0.584,1.319,0.97,1.926 C52.615,20.228,52.729,20.344,52.792,20.651"/> <path fill="#07A894" d="M57.241,28.825c0.339,0.525,0.576,1.05,0.871,1.543c0.841,1.405,1.963,2.484,3.349,3.264 c0.614,0.346,0.616,0.352,0.406,1.064c-0.087,0.298-0.192,0.59-0.294,0.882c-0.068,0.194-0.182,0.233-0.369,0.141 c-1.129-0.559-2.209-1.193-3.075-2.17c-0.592-0.669-0.914-1.438-0.891-2.368C57.256,30.396,57.241,29.611,57.241,28.825"/> <path fill="#08A895" d="M52.402,21.159c-0.608,0.026-1.213-0.065-1.824-0.02c-1.487,0.109-2.846,0.596-4.102,1.43 c-0.571,0.38-0.573,0.377-1.015-0.146c-0.196-0.233-0.39-0.468-0.587-0.701c-0.121-0.143-0.168-0.277,0.01-0.414 c1.207-0.925,2.476-1.701,3.997-1.872c0.398-0.045,0.799-0.023,1.153,0.177c0.809,0.459,1.605,0.946,2.407,1.421L52.402,21.159z"/> <path fill="#07A894" d="M57.355,18.195c-0.114-0.979-0.148-1.95-0.074-2.919c0.047-0.622,0.334-1.144,0.714-1.615 c0.866-1.075,2-1.737,3.182-2.328c0.197-0.099,0.339-0.064,0.418,0.166c0.121,0.352,0.272,0.695,0.36,1.056 c0.106,0.437-0.011,0.676-0.397,0.858c-1.797,0.844-2.993,2.32-3.895,4.109C57.553,17.741,57.458,17.97,57.355,18.195"/> <path fill="#07A894" d="M61.453,26.59c0.668,0.395,1.341,0.779,2,1.189c0.588,0.366,0.92,0.95,1.135,1.616 c0.281,0.875,0.386,1.777,0.358,2.698c-0.013,0.415-0.007,0.832-0.042,1.245c-0.037,0.429-0.089,0.455-0.477,0.378 c-0.289-0.057-0.579-0.116-0.866-0.183c-0.494-0.114-0.551-0.176-0.526-0.711c0.06-1.281-0.104-2.524-0.512-3.734 c-0.286-0.848-0.736-1.601-1.17-2.366C61.386,26.679,61.42,26.634,61.453,26.59"/> <path fill="#07A894" d="M61.621,25.926c0.303,0,0.607-0.007,0.91,0.001c1.826,0.05,3.504-0.454,5.043-1.488 c0.513-0.345,0.534-0.337,0.927,0.135c0.195,0.235,0.384,0.475,0.586,0.703c0.166,0.188,0.197,0.338-0.029,0.506 c-1.203,0.895-2.455,1.662-3.961,1.825c-0.341,0.037-0.688,0.04-0.985-0.122c-0.85-0.461-1.681-0.962-2.519-1.447L61.621,25.926z"/> <path fill="#07A894" d="M61.308,20.364c0.713-1.13,1.307-2.315,1.553-3.668c0.134-0.738,0.199-1.478,0.175-2.23 c-0.025-0.782,0.046-0.867,0.781-1.042c0.961-0.229,1.059-0.157,1.111,0.869c0.056,1.104,0.024,2.197-0.318,3.263 c-0.271,0.844-0.711,1.512-1.483,1.923c-0.578,0.307-1.105,0.713-1.702,0.986C61.386,20.431,61.347,20.397,61.308,20.364"/> <path fill="#07A894" d="M52.532,26.829c-0.416,0.801-0.844,1.593-1.121,2.467c-0.361,1.139-0.494,2.305-0.449,3.501 c0.022,0.584-0.014,0.619-0.558,0.743c-0.288,0.066-0.585,0.099-0.866,0.187c-0.297,0.093-0.409-0.038-0.422-0.317 c-0.026-0.582-0.052-1.164-0.055-1.745c-0.003-0.796,0.13-1.569,0.373-2.325c0.238-0.741,0.659-1.316,1.31-1.697 c0.55-0.322,1.099-0.644,1.649-0.966C52.44,26.727,52.486,26.778,52.532,26.829"/> <path fill="#08A895" d="M56.741,33.346c0,0.906-0.001,1.713,0.001,2.519c0.001,0.357-0.157,0.631-0.383,0.88 c-0.658,0.724-1.499,1.124-2.351,1.507c-0.157,0.071-0.264,0.029-0.343-0.122c-0.276-0.527-0.549-1.055-0.828-1.58 c-0.094-0.177-0.015-0.27,0.124-0.343c0.229-0.119,0.461-0.232,0.69-0.352c1.103-0.577,2.104-1.297,2.877-2.33 C56.562,33.479,56.616,33.449,56.741,33.346"/> <path fill="#08A895" d="M56.761,13.702c-0.134-0.1-0.19-0.124-0.223-0.168c-0.83-1.097-1.903-1.852-3.086-2.452 c-0.106-0.054-0.216-0.102-0.319-0.16c-0.383-0.217-0.394-0.248-0.179-0.668c0.206-0.402,0.43-0.794,0.632-1.198 c0.119-0.238,0.26-0.348,0.518-0.226c0.7,0.333,1.397,0.668,1.991,1.199c0.448,0.4,0.692,0.881,0.671,1.519 C56.743,12.23,56.761,12.913,56.761,13.702"/> <path fill="#08A895" d="M49.123,18.368c-0.731-0.426-1.338-0.766-1.933-1.129c-0.5-0.304-0.736-0.807-0.803-1.387 c-0.084-0.725-0.065-1.455,0.007-2.181c0.046-0.455,0.09-0.485,0.511-0.49c0.433-0.006,0.866-0.005,1.299,0.003 c0.426,0.008,0.43,0.014,0.418,0.456c-0.021,0.707-0.062,1.412-0.035,2.121C48.618,16.618,48.812,17.435,49.123,18.368"/> <path fill="#08A895" d="M48.734,28.261c-0.661,0.402-1.316,0.817-1.986,1.203c-0.348,0.2-0.725,0.135-1.091,0.022 c-0.83-0.255-1.508-0.79-2.19-1.319c-0.189-0.147-0.163-0.292-0.054-0.477c0.27-0.458,0.537-0.919,0.789-1.389 c0.13-0.242,0.253-0.256,0.462-0.094c0.332,0.258,0.68,0.494,1.031,0.723c0.924,0.605,1.923,1.015,3.005,1.193 C48.711,28.17,48.722,28.216,48.734,28.261"/> <path fill="#08A895" d="M65.293,28.117c1.502-0.235,2.797-0.951,4-1.879c0.215-0.165,0.364-0.202,0.515,0.085 c0.239,0.455,0.501,0.896,0.756,1.34c0.1,0.175,0.156,0.334-0.034,0.489c-0.689,0.558-1.38,1.109-2.244,1.344 c-0.46,0.125-0.881,0.098-1.3-0.18c-0.563-0.374-1.152-0.704-1.73-1.054C65.268,28.213,65.281,28.165,65.293,28.117"/> <path fill="#08A895" d="M48.905,18.897c-1.627,0.23-2.915,0.951-4.136,1.842c-0.36,0.263-0.417,0.246-0.652-0.141 c-0.255-0.418-0.48-0.857-0.726-1.282c-0.097-0.168-0.103-0.297,0.061-0.425c0.761-0.591,1.511-1.196,2.469-1.399 c0.195-0.042,0.397-0.109,0.578-0.014C47.284,17.891,48.047,18.344,48.905,18.897"/> <path fill="#07A894" d="M57.312,13.629c-0.087-0.852-0.1-1.678-0.041-2.504c0.025-0.344,0.165-0.636,0.404-0.879 c0.652-0.664,1.444-1.076,2.267-1.435c0.196-0.086,0.335-0.022,0.437,0.179c0.251,0.495,0.511,0.986,0.768,1.478 c0.098,0.188,0.045,0.307-0.144,0.382c-0.147,0.059-0.287,0.136-0.428,0.211C59.348,11.707,58.205,12.47,57.312,13.629"/> <path fill="#07A894" d="M49.118,28.788c-0.614,1.462-0.576,2.996-0.502,4.536c0.025,0.516,0.012,0.521-0.473,0.531 c-0.433,0.009-0.866-0.002-1.298,0.015c-0.264,0.01-0.408-0.092-0.432-0.377c-0.075-0.912-0.151-1.824,0.072-2.727 c0.083-0.333,0.224-0.624,0.513-0.805c0.674-0.424,1.352-0.842,2.028-1.263C49.056,28.727,49.087,28.758,49.118,28.788"/> <path fill="#07A894" d="M64.897,18.221c0.578-1.47,0.613-2.995,0.483-4.541c-0.034-0.409,0.048-0.493,0.414-0.501 c0.472-0.011,0.945,0.004,1.418,0c0.215-0.001,0.318,0.099,0.349,0.325c0.124,0.891,0.179,1.78-0.025,2.666 c-0.107,0.466-0.339,0.829-0.749,1.067c-0.601,0.349-1.191,0.719-1.786,1.08C64.967,18.286,64.932,18.253,64.897,18.221"/> <path fill="#08A895" d="M65.305,18.753c0.681-0.405,1.361-0.813,2.044-1.213c0.216-0.127,0.453-0.128,0.689-0.071 c0.945,0.229,1.725,0.783,2.472,1.402c0.176,0.146,0.162,0.311,0.058,0.493c-0.263,0.463-0.527,0.926-0.785,1.392 c-0.117,0.212-0.257,0.227-0.435,0.086c-0.126-0.1-0.257-0.191-0.387-0.285c-0.994-0.729-2.059-1.293-3.25-1.567 c-0.13-0.03-0.256-0.075-0.384-0.113C65.32,18.836,65.312,18.795,65.305,18.753"/> <path fill="#08A895" d="M57.277,33.544c0.102-0.03,0.14,0.021,0.177,0.065c0.9,1.084,2.029,1.825,3.25,2.431 c0.089,0.044,0.177,0.09,0.267,0.131c0.2,0.092,0.266,0.24,0.157,0.448c-0.258,0.49-0.521,0.977-0.78,1.467 c-0.109,0.208-0.252,0.224-0.443,0.124c-0.511-0.265-1.05-0.471-1.532-0.797c-0.836-0.564-1.235-1.366-1.172-2.419 C57.23,34.507,57.252,34.019,57.277,33.544"/> <path fill="#07A894" d="M65.057,28.81c0.755,0.314,1.405,0.822,2.087,1.27c0.248,0.163,0.336,0.45,0.397,0.742 c0.185,0.887,0.162,1.775,0.029,2.668c-0.043,0.29-0.165,0.387-0.427,0.379c-0.453-0.014-0.906-0.002-1.359-0.014 c-0.389-0.01-0.405-0.031-0.398-0.43c0.006-0.291,0.024-0.583,0.038-0.874c0.059-1.111-0.054-2.202-0.33-3.276 c-0.039-0.152-0.129-0.312-0.027-0.478L65.057,28.81z"/> <path fill="#0AA995" d="M56.757,37.141c0,0.868-0.007,1.611,0.003,2.354c0.006,0.41-0.215,0.631-0.515,0.832 c-0.81,0.543-0.851,0.543-1.393-0.272c-0.214-0.322-0.411-0.656-0.624-0.979c-0.136-0.207-0.093-0.322,0.127-0.417 c0.599-0.26,1.177-0.565,1.705-0.967C56.264,37.537,56.462,37.375,56.757,37.141"/> <path fill="#0AA995" d="M45.959,16.476c-0.716-0.446-1.392-0.855-2.054-1.289c-0.213-0.14-0.275-0.397-0.268-0.66 c0.027-1.195-0.229-1.159,1.02-1.24c0.294-0.019,0.587-0.071,0.881-0.093c0.386-0.029,0.411,0.003,0.39,0.395 c-0.026,0.478-0.074,0.955-0.071,1.432C45.86,15.475,45.918,15.928,45.959,16.476"/> <path fill="#0AA995" d="M56.76,9.956c-0.837-0.826-1.723-1.268-2.653-1.701c0.333-0.666,0.731-1.229,1.12-1.798 c0.112-0.165,0.242-0.192,0.406-0.096c0.206,0.121,0.416,0.232,0.618,0.36c0.366,0.231,0.545,0.547,0.519,1.027 C56.733,8.427,56.76,9.11,56.76,9.956"/> <path fill="#0AA995" d="M67.995,16.501c0.231-1.088,0.187-2.059,0.065-3.029c-0.03-0.232,0.072-0.303,0.265-0.285 c0.587,0.058,1.174,0.119,1.762,0.179c0.192,0.02,0.273,0.146,0.275,0.337c0.004,0.312,0.017,0.624-0.003,0.934 c-0.015,0.232-0.1,0.456-0.3,0.583C69.405,15.634,68.746,16.036,67.995,16.501"/> <path fill="#0AA995" d="M68.006,30.537c0.747,0.471,1.422,0.89,2.091,1.322c0.199,0.128,0.263,0.346,0.286,0.586 c0.1,1.081,0.042,1.173-0.957,1.312c-0.37,0.051-0.745,0.062-1.118,0.088c-0.201,0.014-0.289-0.079-0.253-0.299 C68.212,32.576,68.193,31.606,68.006,30.537"/> <path fill="#0AA995" d="M45.711,30.11c-0.718,0.438-1.376,0.839-2.034,1.24c-0.212,0.129-0.412,0.061-0.619-0.029 c-1.043-0.454-1.083-0.558-0.602-1.618c0.136-0.299,0.259-0.605,0.401-0.901c0.148-0.308,0.196-0.321,0.489-0.089 c0.394,0.312,0.785,0.625,1.228,0.854C44.922,29.747,45.281,29.905,45.711,30.11"/> <path fill="#0AA995" d="M45.925,30.721c-0.064,0.93-0.115,1.86,0.006,2.791c0.03,0.234-0.053,0.356-0.29,0.333 c-0.567-0.054-1.133-0.107-1.7-0.155c-0.184-0.016-0.297-0.098-0.297-0.304c-0.001-0.353-0.002-0.705,0.006-1.058 c0.004-0.199,0.091-0.373,0.25-0.47c0.658-0.402,1.277-0.881,1.989-1.181L45.925,30.721z"/> <path fill="#08A895" d="M68.25,30.081c1.008-0.339,1.782-0.86,2.515-1.455c0.18-0.146,0.272-0.071,0.353,0.12 c0.232,0.549,0.466,1.098,0.716,1.638c0.098,0.212,0.063,0.353-0.119,0.47c-0.201,0.129-0.4,0.262-0.605,0.385 c-0.354,0.212-0.687,0.209-1.047-0.035C69.509,30.828,68.928,30.497,68.25,30.081"/> <path fill="#07A894" d="M59.923,8.252c-0.969,0.429-1.85,0.876-2.623,1.659c-0.102-0.346-0.054-0.63-0.062-0.905 c-0.011-0.373-0.001-0.747,0.004-1.121c0.01-0.682,0.41-1.268,1.017-1.526c0.235-0.099,0.407-0.072,0.555,0.163 C59.159,7.076,59.516,7.62,59.923,8.252"/> <path fill="#0AA995" d="M45.753,16.956c-0.984,0.348-1.758,0.822-2.463,1.421c-0.18,0.152-0.32,0.123-0.418-0.103 c-0.238-0.548-0.477-1.097-0.718-1.644c-0.08-0.182-0.033-0.324,0.116-0.433c0.276-0.201,0.563-0.384,0.88-0.505 c0.171-0.065,0.356-0.088,0.518,0.008C44.333,16.093,44.991,16.496,45.753,16.956"/> <path fill="#08A895" d="M57.245,37.093c0.767,0.734,1.517,1.18,2.323,1.533c0.348,0.152,0.349,0.172,0.155,0.482 c-0.294,0.468-0.606,0.923-0.895,1.394c-0.132,0.215-0.282,0.247-0.501,0.171c-0.746-0.259-1.06-0.679-1.079-1.515 C57.234,38.521,57.245,37.884,57.245,37.093"/> <path fill="#0AA995" d="M68.229,16.963c0.738-0.382,1.279-0.824,1.879-1.157c0.498-0.276,1.356,0,1.705,0.474 c0.105,0.143,0.069,0.263,0.007,0.4c-0.238,0.522-0.478,1.043-0.708,1.569c-0.097,0.222-0.223,0.272-0.408,0.12 C69.996,17.784,69.238,17.293,68.229,16.963"/> <path fill="#23AF9E" d="M56.728,4.569V6.33c-0.381-0.077-0.651-0.348-1.045-0.524c0.33-0.452,0.633-0.867,0.936-1.281 C56.655,4.539,56.691,4.554,56.728,4.569"/> <path fill="#17AC9A" d="M41.566,33.246c0.531-0.321,1.018-0.616,1.499-0.907c0.05,0.071,0.087,0.099,0.089,0.129 c0.05,1.131,0.05,1.131-1.018,0.971C41.964,33.413,41.782,33.423,41.566,33.246"/> <path fill="#23AF9E" d="M55.689,41.246c0.37-0.209,0.672-0.38,1.027-0.58v1.847C56.28,42.158,56.042,41.695,55.689,41.246"/> <path fill="#17AC9A" d="M72.405,13.814c-0.486,0.292-0.972,0.584-1.552,0.932c0-0.408,0.007-0.71-0.002-1.011 c-0.006-0.223,0.089-0.301,0.286-0.266c0.421,0.075,0.842,0.153,1.263,0.229C72.402,13.737,72.403,13.776,72.405,13.814"/> <path fill="#17AC9A" d="M43.164,14.713c-0.607-0.291-1.1-0.598-1.626-0.969c0.472-0.165,0.901-0.17,1.316-0.258 c0.194-0.041,0.309,0.015,0.31,0.24C43.165,14.029,43.164,14.333,43.164,14.713"/> <path fill="#17AC9A" d="M72.756,14.231c-0.184,0.629-0.373,1.112-0.603,1.605c-0.351-0.215-0.654-0.401-1.025-0.628 C71.644,14.859,72.132,14.555,72.756,14.231"/> <path fill="#17AC9A" d="M72.728,32.801c-0.565-0.297-1.048-0.591-1.543-0.941c0.246-0.258,0.536-0.388,0.798-0.558 c0.141-0.092,0.224-0.006,0.273,0.117C72.429,31.849,72.632,32.269,72.728,32.801"/> <path fill="#17AC9A" d="M41.339,32.762c-0.072-0.114-0.035-0.191-0.006-0.266c0.158-0.417,0.318-0.834,0.495-1.3 c0.349,0.217,0.659,0.409,1.023,0.635C42.334,32.207,41.842,32.498,41.339,32.762"/> <path fill="#17AC9A" d="M41.229,14.22c0.62,0.331,1.107,0.611,1.55,0.955c-0.02,0.052-0.022,0.076-0.034,0.085 c-0.878,0.68-0.878,0.68-1.283-0.381C41.397,14.711,41.341,14.54,41.229,14.22"/> <path fill="#17AC9A" d="M72.47,33.276c-0.531,0.195-0.979,0.222-1.42,0.285c-0.156,0.022-0.197-0.079-0.195-0.227 c0.005-0.31,0.002-0.619,0.002-0.987C71.421,32.573,71.873,32.923,72.47,33.276"/> <path fill="#17AC9A" d="M57.285,4.427c0.329,0.435,0.593,0.785,0.859,1.133c0.131,0.171,0.097,0.29-0.085,0.388 c-0.24,0.13-0.474,0.272-0.774,0.446C57.285,6.394,57.285,4.427,57.285,4.427z"/> <path fill="#17AC9A" d="M57.277,42.576v-1.844c0.379,0.061,0.668,0.289,0.996,0.531C57.989,41.716,57.684,42.124,57.277,42.576"/> <path fill="#23AF9E" d="M52.532,26.829c-0.046-0.051-0.092-0.102-0.138-0.153c0.059-0.093,0.136-0.14,0.244-0.12l-0.001-0.001 C52.692,26.685,52.623,26.762,52.532,26.829"/> <path fill="#0AA995" d="M45.889,30.677c0.011-0.053,0.042-0.076,0.068-0.046c0.031,0.037,0.012,0.073-0.033,0.089 C45.925,30.721,45.889,30.677,45.889,30.677"/> <path fill="#07A894" d="M65.066,28.797c-0.027,0.04-0.054,0.04-0.073-0.003c-0.006-0.013,0.003-0.032,0.006-0.048 c0.02,0.022,0.039,0.043,0.058,0.065L65.066,28.797z"/> <path fill="#07A894" d="M61.426,20.464c-0.046,0.06-0.103,0.106-0.164,0.036c-0.014-0.017,0.03-0.089,0.047-0.136 C61.347,20.397,61.387,20.431,61.426,20.464"/> <path fill="#23AF9E" d="M52.638,26.556c0.019-0.026,0.037-0.052,0.056-0.078C52.734,26.552,52.708,26.573,52.638,26.556 L52.638,26.556z"/> <path fill="#07A894" d="M61.278,26.552c-0.046,0.006-0.075-0.014-0.078-0.061c0-0.005,0.035-0.022,0.049-0.018 c0.05,0.016,0.055,0.05,0.02,0.091L61.278,26.552z"/> <path fill="#07A894" d="M61.352,26.724c-0.061-0.04-0.095-0.092-0.074-0.171l-0.009,0.012c0.071-0.071,0.127-0.019,0.185,0.026 C61.419,26.634,61.386,26.679,61.352,26.724"/> </g> <g> <path fill="#999999" d="M18.333,76.558h-2.859v2.863h-0.518V73.29h3.798v0.442h-3.28v2.384h2.859V76.558z"/> <path fill="#999999" d="M22.101,75.295c-0.107-0.02-0.221-0.029-0.341-0.029c-0.314,0-0.58,0.087-0.798,0.263 c-0.217,0.176-0.373,0.431-0.465,0.765v3.128h-0.501v-4.556h0.493l0.008,0.725c0.267-0.539,0.695-0.809,1.284-0.809 c0.141,0,0.251,0.019,0.333,0.055L22.101,75.295z"/> <path fill="#999999" d="M24.997,79.505c-0.387,0-0.737-0.095-1.05-0.286c-0.313-0.19-0.557-0.457-0.73-0.798 c-0.174-0.341-0.261-0.724-0.261-1.147v-0.181c0-0.438,0.085-0.832,0.255-1.184c0.17-0.351,0.406-0.626,0.709-0.827 c0.303-0.2,0.631-0.301,0.985-0.301c0.553,0,0.991,0.188,1.315,0.566c0.324,0.377,0.486,0.894,0.486,1.547v0.282h-3.25v0.097 c0,0.517,0.148,0.947,0.444,1.291c0.296,0.344,0.669,0.516,1.118,0.516c0.27,0,0.508-0.049,0.714-0.147 c0.207-0.099,0.394-0.256,0.562-0.472l0.316,0.24C26.239,79.237,25.701,79.505,24.997,79.505z M24.904,75.211 c-0.379,0-0.698,0.139-0.958,0.416c-0.26,0.278-0.417,0.651-0.474,1.12h2.732v-0.055c-0.014-0.438-0.139-0.794-0.375-1.069 S25.286,75.211,24.904,75.211z"/> <path fill="#999999" d="M30.832,78.263c0-0.249-0.101-0.45-0.301-0.602s-0.503-0.271-0.907-0.355 c-0.404-0.086-0.718-0.185-0.941-0.295c-0.223-0.111-0.389-0.246-0.497-0.406c-0.108-0.16-0.162-0.354-0.162-0.581 c0-0.359,0.15-0.656,0.451-0.891s0.685-0.352,1.154-0.352c0.508,0,0.916,0.125,1.223,0.377c0.307,0.251,0.461,0.579,0.461,0.982 h-0.505c0-0.267-0.111-0.488-0.334-0.665s-0.505-0.265-0.844-0.265c-0.332,0-0.597,0.073-0.798,0.221s-0.301,0.339-0.301,0.574 c0,0.228,0.083,0.404,0.25,0.529s0.472,0.239,0.914,0.343c0.442,0.104,0.773,0.215,0.994,0.333c0.22,0.117,0.384,0.259,0.49,0.425 c0.107,0.166,0.16,0.366,0.16,0.603c0,0.384-0.155,0.691-0.465,0.922c-0.31,0.229-0.715,0.345-1.215,0.345 c-0.53,0-0.96-0.128-1.291-0.385c-0.33-0.257-0.495-0.582-0.495-0.975h0.505c0.02,0.295,0.144,0.524,0.373,0.688 c0.229,0.164,0.531,0.246,0.907,0.246c0.351,0,0.634-0.077,0.851-0.231S30.832,78.499,30.832,78.263z"/> <path fill="#999999" d="M33.386,75.636c0.166-0.272,0.377-0.482,0.636-0.632c0.258-0.148,0.541-0.223,0.847-0.223 c0.488,0,0.852,0.138,1.09,0.412c0.239,0.275,0.359,0.688,0.362,1.238v2.989H35.82v-2.993c-0.003-0.407-0.089-0.711-0.259-0.91 s-0.441-0.299-0.814-0.299c-0.312,0-0.587,0.098-0.828,0.293c-0.24,0.195-0.417,0.458-0.533,0.789v3.12h-0.501v-6.467h0.501V75.636 z"/> <path fill="#999999" d="M38.514,74.865l0.017,0.779c0.171-0.281,0.384-0.495,0.64-0.643c0.256-0.147,0.538-0.221,0.847-0.221 c0.488,0,0.852,0.138,1.09,0.412c0.239,0.275,0.359,0.688,0.362,1.238v2.989h-0.501v-2.993c-0.003-0.407-0.089-0.711-0.259-0.91 s-0.441-0.299-0.814-0.299c-0.312,0-0.587,0.098-0.828,0.293c-0.24,0.195-0.417,0.458-0.533,0.789v3.12h-0.501v-4.556H38.514z"/> <path fill="#999999" d="M44.952,79.505c-0.389,0-0.738-0.095-1.051-0.286c-0.313-0.19-0.557-0.457-0.73-0.798 c-0.174-0.341-0.261-0.724-0.261-1.147v-0.181c0-0.438,0.085-0.832,0.255-1.184c0.17-0.351,0.407-0.626,0.709-0.827 c0.303-0.2,0.631-0.301,0.984-0.301c0.555,0,0.992,0.188,1.316,0.566c0.324,0.377,0.486,0.894,0.486,1.547v0.282h-3.25v0.097 c0,0.517,0.148,0.947,0.443,1.291c0.297,0.344,0.67,0.516,1.119,0.516c0.27,0,0.506-0.049,0.713-0.147s0.395-0.256,0.563-0.472 l0.314,0.24C46.194,79.237,45.657,79.505,44.952,79.505z M44.858,75.211c-0.379,0-0.697,0.139-0.957,0.416 c-0.26,0.278-0.418,0.651-0.474,1.12h2.733v-0.055c-0.016-0.438-0.141-0.794-0.375-1.069 C45.549,75.348,45.241,75.211,44.858,75.211z"/> <path fill="#999999" d="M50.787,78.263c0-0.249-0.101-0.45-0.302-0.602c-0.2-0.151-0.503-0.271-0.907-0.355 c-0.404-0.086-0.718-0.185-0.941-0.295c-0.223-0.111-0.389-0.246-0.496-0.406c-0.108-0.16-0.162-0.354-0.162-0.581 c0-0.359,0.149-0.656,0.45-0.891s0.685-0.352,1.153-0.352c0.509,0,0.916,0.125,1.224,0.377c0.308,0.251,0.461,0.579,0.461,0.982 h-0.505c0-0.267-0.112-0.488-0.335-0.665c-0.224-0.177-0.505-0.265-0.845-0.265c-0.331,0-0.597,0.073-0.798,0.221 c-0.2,0.147-0.301,0.339-0.301,0.574c0,0.228,0.084,0.404,0.251,0.529s0.472,0.239,0.913,0.343 c0.442,0.104,0.773,0.215,0.994,0.333c0.22,0.117,0.384,0.259,0.49,0.425s0.16,0.366,0.16,0.603c0,0.384-0.155,0.691-0.466,0.922 c-0.31,0.229-0.715,0.345-1.214,0.345c-0.531,0-0.961-0.128-1.291-0.385s-0.495-0.582-0.495-0.975h0.506 c0.02,0.295,0.144,0.524,0.372,0.688c0.229,0.164,0.531,0.246,0.908,0.246c0.351,0,0.634-0.077,0.851-0.231 C50.678,78.694,50.787,78.499,50.787,78.263z"/> <path fill="#999999" d="M55.569,78.263c0-0.249-0.101-0.45-0.302-0.602c-0.2-0.151-0.503-0.271-0.907-0.355 c-0.404-0.086-0.718-0.185-0.941-0.295c-0.223-0.111-0.389-0.246-0.496-0.406c-0.108-0.16-0.162-0.354-0.162-0.581 c0-0.359,0.149-0.656,0.45-0.891s0.685-0.352,1.153-0.352c0.509,0,0.916,0.125,1.224,0.377c0.308,0.251,0.461,0.579,0.461,0.982 h-0.505c0-0.267-0.112-0.488-0.335-0.665c-0.224-0.177-0.505-0.265-0.845-0.265c-0.331,0-0.597,0.073-0.798,0.221 c-0.2,0.147-0.301,0.339-0.301,0.574c0,0.228,0.084,0.404,0.251,0.529s0.472,0.239,0.913,0.343 c0.442,0.104,0.773,0.215,0.994,0.333c0.22,0.117,0.384,0.259,0.49,0.425s0.16,0.366,0.16,0.603c0,0.384-0.155,0.691-0.466,0.922 c-0.31,0.229-0.715,0.345-1.214,0.345c-0.531,0-0.961-0.128-1.291-0.385s-0.495-0.582-0.495-0.975h0.506 c0.02,0.295,0.144,0.524,0.372,0.688c0.229,0.164,0.531,0.246,0.908,0.246c0.351,0,0.634-0.077,0.851-0.231 C55.46,78.694,55.569,78.499,55.569,78.263z"/> <path fill="#999999" d="M59.856,77.076c0-0.438,0.085-0.833,0.255-1.184s0.41-0.624,0.72-0.819 c0.311-0.194,0.662-0.292,1.055-0.292c0.606,0,1.098,0.213,1.474,0.638s0.564,0.989,0.564,1.69v0.105 c0,0.44-0.085,0.837-0.255,1.189s-0.409,0.624-0.718,0.814c-0.309,0.191-0.661,0.286-1.057,0.286c-0.604,0-1.094-0.212-1.472-0.638 c-0.378-0.425-0.566-0.988-0.566-1.69V77.076z M60.361,77.215c0,0.545,0.142,0.991,0.424,1.341s0.651,0.524,1.109,0.524 c0.454,0,0.823-0.175,1.105-0.524s0.423-0.811,0.423-1.383v-0.097c0-0.349-0.064-0.667-0.193-0.956 c-0.13-0.289-0.311-0.513-0.544-0.672c-0.232-0.158-0.499-0.237-0.8-0.237c-0.449,0-0.815,0.176-1.099,0.528 c-0.283,0.352-0.426,0.813-0.426,1.383V77.215z"/> <path fill="#999999" d="M65.859,74.865l0.017,0.779c0.172-0.281,0.385-0.495,0.641-0.643c0.255-0.147,0.537-0.221,0.846-0.221 c0.489,0,0.853,0.138,1.091,0.412c0.238,0.275,0.359,0.688,0.362,1.238v2.989h-0.501v-2.993c-0.003-0.407-0.09-0.711-0.259-0.91 c-0.17-0.199-0.441-0.299-0.815-0.299c-0.312,0-0.587,0.098-0.827,0.293s-0.417,0.458-0.532,0.789v3.12H65.38v-4.556H65.859z"/> <path fill="#999999" d="M75.454,76.869h-1.781v2.552H73.15V73.29h1.992c0.653,0,1.165,0.159,1.532,0.477 c0.368,0.317,0.552,0.761,0.552,1.33c0,0.394-0.115,0.74-0.346,1.04c-0.229,0.301-0.538,0.508-0.926,0.623l1.532,2.606v0.055 h-0.551L75.454,76.869z M73.673,76.428h1.587c0.436,0,0.785-0.124,1.049-0.371s0.396-0.566,0.396-0.96 c0-0.432-0.137-0.768-0.412-1.006c-0.275-0.239-0.661-0.358-1.158-0.358h-1.461V76.428z"/> <path fill="#999999" d="M80.699,79.505c-0.388,0-0.737-0.095-1.051-0.286c-0.313-0.19-0.556-0.457-0.73-0.798 c-0.174-0.341-0.261-0.724-0.261-1.147v-0.181c0-0.438,0.085-0.832,0.255-1.184c0.17-0.351,0.406-0.626,0.709-0.827 c0.304-0.2,0.632-0.301,0.985-0.301c0.554,0,0.992,0.188,1.316,0.566c0.324,0.377,0.486,0.894,0.486,1.547v0.282h-3.251v0.097 c0,0.517,0.148,0.947,0.444,1.291s0.669,0.516,1.118,0.516c0.27,0,0.507-0.049,0.714-0.147c0.206-0.099,0.394-0.256,0.562-0.472 l0.315,0.24C81.941,79.237,81.404,79.505,80.699,79.505z M80.606,75.211c-0.379,0-0.698,0.139-0.958,0.416 c-0.259,0.278-0.417,0.651-0.474,1.12h2.733v-0.055c-0.015-0.438-0.14-0.794-0.375-1.069 C81.297,75.348,80.988,75.211,80.606,75.211z"/> <path fill="#999999" d="M87.47,77.189c0,0.71-0.157,1.273-0.472,1.69s-0.735,0.625-1.264,0.625c-0.623,0-1.1-0.219-1.432-0.656 v2.324h-0.501v-6.308h0.468l0.025,0.645c0.328-0.486,0.804-0.729,1.427-0.729c0.545,0,0.973,0.206,1.282,0.619 c0.311,0.412,0.466,0.985,0.466,1.718V77.189z M86.964,77.101c0-0.581-0.119-1.039-0.357-1.376 c-0.239-0.337-0.571-0.506-0.998-0.506c-0.309,0-0.574,0.074-0.796,0.224c-0.222,0.148-0.392,0.364-0.51,0.648v2.185 c0.121,0.262,0.294,0.461,0.519,0.599c0.225,0.137,0.489,0.206,0.796,0.206c0.424,0,0.754-0.169,0.991-0.508 C86.846,78.234,86.964,77.744,86.964,77.101z"/> <path fill="#999999" d="M90.765,79.505c-0.388,0-0.737-0.095-1.051-0.286c-0.313-0.19-0.556-0.457-0.73-0.798 c-0.174-0.341-0.261-0.724-0.261-1.147v-0.181c0-0.438,0.085-0.832,0.255-1.184c0.17-0.351,0.406-0.626,0.709-0.827 c0.304-0.2,0.632-0.301,0.985-0.301c0.554,0,0.992,0.188,1.316,0.566c0.324,0.377,0.486,0.894,0.486,1.547v0.282h-3.251v0.097 c0,0.517,0.148,0.947,0.444,1.291s0.669,0.516,1.118,0.516c0.27,0,0.507-0.049,0.714-0.147c0.206-0.099,0.394-0.256,0.562-0.472 l0.315,0.24C92.007,79.237,91.47,79.505,90.765,79.505z M90.672,75.211c-0.379,0-0.698,0.139-0.958,0.416 c-0.259,0.278-0.417,0.651-0.474,1.12h2.733v-0.055c-0.015-0.438-0.14-0.794-0.375-1.069 C91.362,75.348,91.054,75.211,90.672,75.211z"/> <path fill="#999999" d="M96.747,79.421c-0.05-0.143-0.082-0.354-0.097-0.636c-0.177,0.23-0.402,0.408-0.676,0.533 c-0.273,0.124-0.563,0.187-0.869,0.187c-0.438,0-0.792-0.122-1.063-0.366c-0.271-0.244-0.406-0.553-0.406-0.926 c0-0.443,0.185-0.795,0.554-1.053c0.369-0.259,0.884-0.388,1.543-0.388h0.914v-0.518c0-0.326-0.101-0.582-0.301-0.769 c-0.201-0.187-0.494-0.28-0.878-0.28c-0.352,0-0.642,0.09-0.872,0.27s-0.345,0.396-0.345,0.648l-0.506-0.004 c0-0.362,0.169-0.676,0.506-0.941c0.337-0.265,0.751-0.397,1.242-0.397c0.508,0,0.908,0.127,1.202,0.381 c0.293,0.254,0.443,0.608,0.452,1.063v2.155c0,0.44,0.046,0.771,0.139,0.989v0.051H96.747z M95.164,79.059 c0.337,0,0.638-0.081,0.903-0.244c0.266-0.162,0.458-0.38,0.579-0.652V77.16h-0.901c-0.502,0.006-0.896,0.098-1.179,0.275 c-0.283,0.179-0.425,0.424-0.425,0.735c0,0.255,0.095,0.467,0.284,0.636C94.615,78.975,94.861,79.059,95.164,79.059z"/> <path fill="#999999" d="M99.689,73.699v1.166h0.942v0.413h-0.942v3.035c0,0.253,0.045,0.441,0.137,0.564 c0.091,0.123,0.243,0.186,0.456,0.186c0.085,0,0.221-0.015,0.409-0.042l0.021,0.412c-0.132,0.048-0.312,0.071-0.539,0.071 c-0.345,0-0.596-0.1-0.753-0.301c-0.157-0.2-0.236-0.496-0.236-0.886v-3.04h-0.838v-0.413h0.838v-1.166H99.689z"/> </g> </svg>