<svg width="64" height="14" viewBox="0 0 64 14" fill="none" xmlns="http://www.w3.org/2000/svg">
<path d="M8.39655 2.78051C8.18405 2.78051 8.00913 2.6167 7.98675 2.40652L7.98433 2.36081L7.98441 0.419699C7.98441 0.20334 8.14516 0.0252466 8.35171 0.00246241L8.39663 0H9.5515C9.76415 0 9.93908 0.163669 9.96145 0.373964L9.96387 0.419699L9.96425 0.967555L11.2924 0.967463C11.5049 0.967463 11.6798 1.13113 11.7022 1.34143L11.7046 1.38716V2.36081C11.7046 2.57702 11.5438 2.75524 11.3373 2.77804L11.2924 2.78051H8.39655Z" fill="#E6123D"/>
<path d="M15.2077 12.0076C15.4133 12.0076 15.5648 12.147 15.5854 12.3474L15.5878 12.3947V13.5561C15.5878 13.7655 15.451 13.9198 15.2541 13.9408L15.2077 13.9432H12.1666C11.961 13.9432 11.8094 13.8039 11.7888 13.6034L11.7865 13.5561V12.3947C11.7865 12.1854 11.9233 12.031 12.1201 12.0101L12.1666 12.0076H15.2077Z" fill="#E6123D"/>
<path d="M9.9102 8.94445V5.44445C9.9102 5.22967 9.73997 5.05556 9.52999 5.05556H8.38937C8.17938 5.05556 8.00916 5.22967 8.00916 5.44445V10.1111C8.00916 11.2241 7.19676 12.0556 6.10885 12.0556H4.4983C4.15618 12.0556 4.09026 12.3692 4.30823 12.6389L5.12171 13.7017C5.26584 13.89 5.48665 14 5.72046 14H6.10885C8.2886 14 9.9102 12.3411 9.9102 10.1111V10.1045L10.3277 10.7214C10.3987 10.8263 10.5156 10.8889 10.6403 10.8889H13.6729C15.3527 10.8889 16.7145 9.496 16.7145 7.77778V5.44445C16.7145 5.22967 16.5443 5.05556 16.3343 5.05556H15.1937C14.9837 5.05556 14.8135 5.22967 14.8135 5.44445V7.77778C14.8135 8.42211 14.3028 8.94445 13.6729 8.94445H9.9102Z" fill="#E6123D"/>
<path d="M36.532 2.78051C36.3195 2.78051 36.1445 2.6167 36.1222 2.40652L36.1197 2.36082L36.1198 0.419705C36.1198 0.203346 36.2806 0.0252525 36.4871 0.00246835L36.532 5.93397e-06H37.6869C37.8996 5.93397e-06 38.0745 0.163675 38.0969 0.37397L38.0993 0.419705L38.0997 0.967561L39.4278 0.967469C39.6403 0.967469 39.8152 1.13114 39.8376 1.34143L39.84 1.38717V2.36082C39.84 2.57702 39.6792 2.75525 39.4727 2.77805L39.4278 2.78051H36.532Z" fill="#E6123D"/>
<path d="M61.781 0.33982C61.7604 0.139405 61.6089 3.70873e-06 61.4033 3.70873e-06H60.0728L60.0264 0.00244261C59.8296 0.0234251 59.6927 0.177779 59.6927 0.387117V1.54846L59.6951 1.59577C59.7157 1.79624 59.8673 1.93557 60.0728 1.93557H61.4033L61.4497 1.93313C61.6466 1.91216 61.7834 1.75787 61.7834 1.54846V0.387117L61.781 0.33982Z" fill="#E6123D"/>
<path fill-rule="evenodd" clip-rule="evenodd" d="M60.8333 10.8889C62.5132 10.8889 63.875 9.496 63.875 7.77778V6.61111C63.875 4.89289 62.5132 3.5 60.8333 3.5C59.1535 3.5 57.7917 4.89289 57.7917 6.61111V7.77778C57.7917 8.19035 57.8702 8.58417 58.0127 8.94445H55.155V5.44445C55.155 5.22967 54.9848 5.05556 54.7748 5.05556H53.6341C53.4242 5.05556 53.2539 5.22967 53.2539 5.44445V10.1111H53.2543C53.2543 11.2241 52.4416 12.0556 51.3536 12.0556H50.1233C49.7812 12.0556 49.7153 12.3692 49.9332 12.6389L50.7467 13.7017C50.8908 13.89 51.1117 14 51.3455 14H51.3536C53.5334 14 55.155 12.3411 55.155 10.1111L55.155 10.1045L55.5725 10.7214C55.6435 10.8263 55.7603 10.8889 55.8851 10.8889H60.8333ZM61.9739 7.77778V6.61111C61.9739 5.96678 61.4633 5.44445 60.8333 5.44445C60.2034 5.44445 59.6927 5.96678 59.6927 6.61111V7.77778C59.6927 8.42211 60.2034 8.94445 60.8333 8.94445C61.4633 8.94445 61.9739 8.42211 61.9739 7.77778Z" fill="#E6123D"/>
<path fill-rule="evenodd" clip-rule="evenodd" d="M0.601306 5.44445C0.458724 5.80473 0.380208 6.19854 0.380208 6.61111V7.77778C0.380208 9.496 1.74201 10.8889 3.42187 10.8889C5.10174 10.8889 6.46354 9.496 6.46354 7.77778V6.61111C6.46354 4.89289 5.10174 3.5 3.42187 3.5H0.380208C0.170225 3.5 0 3.67411 0 3.88889V5.05556C0 5.27034 0.170225 5.44445 0.380208 5.44445H0.601306ZM4.5625 6.61111V7.77778C4.5625 8.42211 4.05182 8.94445 3.42187 8.94445C2.79192 8.94445 2.28125 8.42211 2.28125 7.77778V6.61111C2.28125 5.96678 2.79192 5.44445 3.42187 5.44445C4.05182 5.44445 4.5625 5.96678 4.5625 6.61111Z" fill="#E6123D"/>
<path fill-rule="evenodd" clip-rule="evenodd" d="M46.0036 14C48.1834 14 49.805 12.3411 49.805 10.1111H49.8073V6.61111C49.8073 4.89289 48.4455 3.5 46.7656 3.5C45.0857 3.5 43.7239 4.89289 43.7239 6.61111V7.77778C43.7239 9.496 45.0857 10.8889 46.7656 10.8889C47.138 10.8889 47.4948 10.8204 47.8246 10.6951C47.5949 11.5027 46.8907 12.0556 46.0036 12.0556H44.3931C44.051 12.0556 43.985 12.3692 44.203 12.6389L45.0165 13.7017C45.1606 13.89 45.3814 14 45.6152 14H46.0036ZM47.9062 6.61111C47.9062 5.96678 47.3956 5.44445 46.7656 5.44445C46.1357 5.44445 45.625 5.96678 45.625 6.61111V7.77778C45.625 8.42211 46.1357 8.94445 46.7656 8.94445C47.3956 8.94445 47.9062 8.42211 47.9062 7.77778V6.61111Z" fill="#E6123D"/>
<path fill-rule="evenodd" clip-rule="evenodd" d="M23.9508 10.1111C23.9508 12.3411 22.3292 14 20.1495 14H19.7611C19.5273 14 19.3065 13.89 19.1623 13.7017L18.3489 12.6389C18.1309 12.3692 18.1968 12.0556 18.5389 12.0556H20.1495C21.0366 12.0556 21.7408 11.5027 21.9705 10.6951C21.6407 10.8204 21.2839 10.8889 20.9115 10.8889C19.2316 10.8889 17.8698 9.496 17.8698 7.77778V6.61111C17.8698 4.89289 19.2316 3.5 20.9115 3.5C22.5913 3.5 23.9531 4.89289 23.9531 6.61111V10.1111H23.9508ZM22.0521 6.61111V7.77778C22.0521 8.42211 21.5414 8.94445 20.9115 8.94445C20.2815 8.94445 19.7708 8.42211 19.7708 7.77778V6.61111C19.7708 5.96678 20.2815 5.44445 20.9115 5.44445C21.5414 5.44445 22.0521 5.96678 22.0521 6.61111Z" fill="#E6123D"/>
<path d="M38.4569 10.1422L38.8489 10.7214C38.9199 10.8263 39.0367 10.8889 39.1615 10.8889H39.5271C41.207 10.8889 42.5688 9.49599 42.5688 7.77777V5.44444C42.5688 5.22966 42.3986 5.05555 42.1886 5.05555H41.048C40.838 5.05555 40.6677 5.22966 40.6677 5.44444V7.77777C40.6677 8.42211 40.1571 8.94444 39.5271 8.94444H39.3005C39.443 8.58416 39.5216 8.19035 39.5216 7.77777V5.44444C39.5216 5.22966 39.3513 5.05555 39.1413 5.05555H38.0007C37.7907 5.05555 37.6205 5.22966 37.6205 5.44444V7.77777C37.6205 8.42211 37.1098 8.94444 36.4799 8.94444H35.3842V5.44445C35.3842 5.22967 35.2139 5.05556 35.0039 5.05556H33.8633C33.6533 5.05556 33.4831 5.22967 33.4831 5.44445V8.94444H33.4583L33.4831 8.98106V10.1111C33.4831 11.2241 32.6707 12.0556 31.5828 12.0556H30.0357C28.9478 12.0556 28.135 11.2241 28.135 10.1111H28.1354V7C28.1354 6.78522 27.9652 6.61111 27.7552 6.61111H26.6146C26.4046 6.61111 26.2344 6.78522 26.2344 7L26.2344 10.1111C26.2344 12.3411 27.856 14 30.0357 14H31.5828C33.5005 14 34.9861 12.7161 35.3157 10.8889H36.4799C37.2346 10.8889 37.9252 10.6077 38.4569 10.1422Z" fill="#E6123D"/>
</svg>